<svg width="20" height="20" viewBox="0 0 20 20" fill="none" xmlns="http://www.w3.org/2000/svg">
<path d="M19.3623 9.7112L0.690467 0.349595C0.614574 0.311648 0.527521 0.30272 0.444932 0.322809C0.35327 0.345469 0.274321 0.403527 0.225373 0.484271C0.176425 0.565014 0.161466 0.661863 0.183771 0.753612L2.10788 8.61522C2.1369 8.73352 2.22395 8.8295 2.34002 8.86745L5.6369 9.99915L2.34225 11.1308C2.22618 11.171 2.13913 11.2648 2.11234 11.3831L0.183771 19.2558C0.163682 19.3384 0.17261 19.4255 0.210557 19.4991C0.29761 19.6755 0.511896 19.7469 0.690467 19.6599L19.3623 10.3518C19.4315 10.3183 19.4873 10.2603 19.5231 10.1933C19.6101 10.0148 19.5387 9.80049 19.3623 9.7112ZM2.38466 17.0192L3.50743 12.43L10.0967 10.1688C10.1481 10.1509 10.1905 10.1108 10.2083 10.0572C10.2396 9.96343 10.1905 9.86299 10.0967 9.8295L3.50743 7.57058L2.38913 2.99915L16.407 10.0282L2.38466 17.0192Z" fill="#456288"/>
</svg>
